<?xml version="1.0" encoding="UTF-8" standalone="no"?><svg xmlns="http://www.w3.org/2000/svg" xmlns:xlink="http://www.w3.org/1999/xlink" contentScriptType="application/ecmascript" contentStyleType="text/css" height="379px" preserveAspectRatio="none" style="width:169px;height:379px;background:#FFFFFF;" version="1.1" viewBox="0 0 169 379" width="169px" zoomAndPan="magnify"><defs><filter height="300%" id="fgislj18il9za" width="300%" x="-1" y="-1"><feGaussianBlur result="blurOut" stdDeviation="2.0"/><feColorMatrix in="blurOut" result="blurOut2" type="matrix" values="0 0 0 0 0 0 0 0 0 0 0 0 0 0 0 0 0 0 .4 0"/><feOffset dx="4.0" dy="4.0" in="blurOut2" result="blurOut3"/><feBlend in="SourceGraphic" in2="blurOut3" mode="normal"/></filter></defs><g><rect fill="#FFFFFF" filter="url(#fgislj18il9za)" height="154.7969" style="stroke:#A80036;stroke-width:1.0;" width="10" x="76" y="114.5938"/><line style="stroke:#A80036;stroke-width:1.0;stroke-dasharray:5.0,5.0;" x1="81" x2="81" y1="104.5938" y2="279.3906"/><text fill="#000000" font-family="sans-serif" font-size="14" font-style="italic" lengthAdjust="spacing" textLength="38" x="59" y="84.9951">«My»</text><text fill="#000000" font-family="sans-serif" font-size="14" lengthAdjust="spacing" textLength="90" x="33" y="101.292">Main Service</text><ellipse cx="81" cy="15" fill="#FEFECE" filter="url(#fgislj18il9za)" rx="8" ry="8" style="stroke:#A80036;stroke-width:2.0;"/><path d="M81,23 L81,50 M68,31 L94,31 M81,50 L68,65 M81,50 L94,65 " fill="none" filter="url(#fgislj18il9za)" style="stroke:#A80036;stroke-width:2.0;"/><text fill="#000000" font-family="sans-serif" font-size="14" font-style="italic" lengthAdjust="spacing" textLength="38" x="59" y="291.3857">«My»</text><text fill="#000000" font-family="sans-serif" font-size="14" lengthAdjust="spacing" textLength="90" x="33" y="307.6826">Main Service</text><ellipse cx="81" cy="320.9844" fill="#FEFECE" filter="url(#fgislj18il9za)" rx="8" ry="8" style="stroke:#A80036;stroke-width:2.0;"/><path d="M81,328.9844 L81,355.9844 M68,336.9844 L94,336.9844 M81,355.9844 L68,370.9844 M81,355.9844 L94,370.9844 " fill="none" filter="url(#fgislj18il9za)" style="stroke:#A80036;stroke-width:2.0;"/><rect fill="#FFFFFF" filter="url(#fgislj18il9za)" height="154.7969" style="stroke:#A80036;stroke-width:1.0;" width="10" x="76" y="114.5938"/><rect fill="#EEEEEE" filter="url(#fgislj18il9za)" height="3" style="stroke:#EEEEEE;stroke-width:1.0;" width="162" x="0" y="135.1602"/><line style="stroke:#000000;stroke-width:1.0;" x1="0" x2="162" y1="135.1602" y2="135.1602"/><line style="stroke:#000000;stroke-width:1.0;" x1="0" x2="162" y1="138.1602" y2="138.1602"/><rect fill="#EEEEEE" filter="url(#fgislj18il9za)" height="23.1328" style="stroke:#000000;stroke-width:2.0;" width="40" x="61" y="124.5938"/><text fill="#000000" font-family="sans-serif" font-size="13" font-weight="bold" lengthAdjust="spacing" textLength="21" x="67" y="140.6606">Do</text><polygon fill="#FBFB77" filter="url(#fgislj18il9za)" points="30,162.7266,131,162.7266,141,173.7266,131,185.7266,30,185.7266,20,173.7266,30,162.7266" style="stroke:#A80036;stroke-width:1.0;"/><text fill="#000000" font-family="sans-serif" font-size="13" lengthAdjust="spacing" textLength="97" x="32" y="178.7935">do: Some work</text><polygon fill="#FBFB77" filter="url(#fgislj18il9za)" points="15,195.8594,147,195.8594,157,229.8594,147,263.8594,15,263.8594,5,229.8594,15,195.8594" style="stroke:#A80036;stroke-width:1.0;"/><text fill="#000000" font-family="sans-serif" font-size="13" lengthAdjust="spacing" textLength="21" x="17" y="211.9263">do:</text><text fill="#000000" font-family="sans-serif" font-size="13" lengthAdjust="spacing" textLength="60" x="33" y="227.0591">one thing</text><text fill="#000000" font-family="sans-serif" font-size="13" lengthAdjust="spacing" textLength="70" x="33" y="242.1919">other thing</text><text fill="#000000" font-family="sans-serif" font-size="13" lengthAdjust="spacing" textLength="112" x="33" y="257.3247">and the last thing</text><!--MD5=[474a4a6bf1d70cae1bd15305b2fcfe18]
@startuml


== Do ==

actor "Main Service" as MainService <<My>>

activate MainService
hnote over MainService
do: Some work
end hnote
hnote over MainService
do:
    one thing
    other thing
    and the last thing
end hnote

deactivate MainService
@enduml

PlantUML version 1.2021.7(Sun May 23 12:40:07 UTC 2021)
(GPL source distribution)
Java Runtime: Java(TM) SE Runtime Environment
JVM: Java HotSpot(TM) 64-Bit Server VM
Default Encoding: UTF-8
Language: en
Country: US
--></g></svg>