<?xml version="1.0" encoding="UTF-8" standalone="no"?><svg xmlns="http://www.w3.org/2000/svg" xmlns:xlink="http://www.w3.org/1999/xlink" contentScriptType="application/ecmascript" contentStyleType="text/css" height="365px" preserveAspectRatio="none" style="width:215px;height:365px;background:#FFFFFF;" version="1.1" viewBox="0 0 215 365" width="215px" zoomAndPan="magnify"><defs><filter height="300%" id="fubnnswppqt63" width="300%" x="-1" y="-1"><feGaussianBlur result="blurOut" stdDeviation="2.0"/><feColorMatrix in="blurOut" result="blurOut2" type="matrix" values="0 0 0 0 0 0 0 0 0 0 0 0 0 0 0 0 0 0 .4 0"/><feOffset dx="4.0" dy="4.0" in="blurOut2" result="blurOut3"/><feBlend in="SourceGraphic" in2="blurOut3" mode="normal"/></filter></defs><g><rect fill="#FFFFFF" filter="url(#fubnnswppqt63)" height="140.5313" style="stroke:#A80036;stroke-width:1.0;" width="10" x="88" y="114.5938"/><rect fill="#FFFFFF" filter="url(#fubnnswppqt63)" height="83.3984" style="stroke:#000000;stroke-width:2.0;" width="188" x="9" y="164.7266"/><line style="stroke:#A80036;stroke-width:1.0;stroke-dasharray:5.0,5.0;" x1="93" x2="93" y1="104.5938" y2="265.125"/><text fill="#000000" font-family="sans-serif" font-size="14" font-style="italic" lengthAdjust="spacing" textLength="38" x="71" y="84.9951">«My»</text><text fill="#000000" font-family="sans-serif" font-size="14" lengthAdjust="spacing" textLength="90" x="45" y="101.292">Main Service</text><ellipse cx="93" cy="15" fill="#FEFECE" filter="url(#fubnnswppqt63)" rx="8" ry="8" style="stroke:#A80036;stroke-width:2.0;"/><path d="M93,23 L93,50 M80,31 L106,31 M93,50 L80,65 M93,50 L106,65 " fill="none" filter="url(#fubnnswppqt63)" style="stroke:#A80036;stroke-width:2.0;"/><text fill="#000000" font-family="sans-serif" font-size="14" font-style="italic" lengthAdjust="spacing" textLength="38" x="71" y="277.1201">«My»</text><text fill="#000000" font-family="sans-serif" font-size="14" lengthAdjust="spacing" textLength="90" x="45" y="293.417">Main Service</text><ellipse cx="93" cy="306.7188" fill="#FEFECE" filter="url(#fubnnswppqt63)" rx="8" ry="8" style="stroke:#A80036;stroke-width:2.0;"/><path d="M93,314.7188 L93,341.7188 M80,322.7188 L106,322.7188 M93,341.7188 L80,356.7188 M93,341.7188 L106,356.7188 " fill="none" filter="url(#fubnnswppqt63)" style="stroke:#A80036;stroke-width:2.0;"/><rect fill="#FFFFFF" filter="url(#fubnnswppqt63)" height="140.5313" style="stroke:#A80036;stroke-width:1.0;" width="10" x="88" y="114.5938"/><rect fill="#EEEEEE" filter="url(#fubnnswppqt63)" height="3" style="stroke:#EEEEEE;stroke-width:1.0;" width="208" x="0" y="135.1602"/><line style="stroke:#000000;stroke-width:1.0;" x1="0" x2="208" y1="135.1602" y2="135.1602"/><line style="stroke:#000000;stroke-width:1.0;" x1="0" x2="208" y1="138.1602" y2="138.1602"/><rect fill="#EEEEEE" filter="url(#fubnnswppqt63)" height="23.1328" style="stroke:#000000;stroke-width:2.0;" width="65" x="71.5" y="124.5938"/><text fill="#000000" font-family="sans-serif" font-size="13" font-weight="bold" lengthAdjust="spacing" textLength="46" x="77.5" y="140.6606">Group</text><path d="M9,164.7266 L192,164.7266 L192,171.7266 L182,181.7266 L9,181.7266 L9,164.7266 " fill="#EEEEEE" style="stroke:#000000;stroke-width:1.0;"/><rect fill="none" height="83.3984" style="stroke:#000000;stroke-width:2.0;" width="188" x="9" y="164.7266"/><text fill="#000000" font-family="sans-serif" font-size="13" font-weight="bold" lengthAdjust="spacing" textLength="138" x="24" y="177.7935">Grouped together</text><polygon fill="#FBFB77" filter="url(#fubnnswppqt63)" points="44,186.8594,141,186.8594,151,197.8594,141,209.8594,44,209.8594,34,197.8594,44,186.8594" style="stroke:#A80036;stroke-width:1.0;"/><text fill="#000000" font-family="sans-serif" font-size="13" lengthAdjust="spacing" textLength="93" x="46" y="202.9263">do: something</text><polygon fill="#FBFB77" filter="url(#fubnnswppqt63)" points="29,219.9922,156,219.9922,166,230.9922,156,242.9922,29,242.9922,19,230.9922,29,219.9922" style="stroke:#A80036;stroke-width:1.0;"/><text fill="#000000" font-family="sans-serif" font-size="13" lengthAdjust="spacing" textLength="123" x="31" y="236.0591">do: something else</text><!--MD5=[adc131f7c74312609e81833eaf0fbfb6]
@startuml


== Group ==

actor "Main Service" as MainService <<My>>

activate MainService
group Grouped together
    hnote over MainService
    do: something
    end hnote
    hnote over MainService
    do: something else
    end hnote
end

deactivate MainService
@enduml

PlantUML version 1.2021.7(Sun May 23 12:40:07 UTC 2021)
(GPL source distribution)
Java Runtime: Java(TM) SE Runtime Environment
JVM: Java HotSpot(TM) 64-Bit Server VM
Default Encoding: UTF-8
Language: en
Country: US
--></g></svg>