<?xml version="1.0" encoding="UTF-8" standalone="no"?><svg xmlns="http://www.w3.org/2000/svg" xmlns:xlink="http://www.w3.org/1999/xlink" contentScriptType="application/ecmascript" contentStyleType="text/css" height="495px" preserveAspectRatio="none" style="width:256px;height:495px;background:#FFFFFF;" version="1.1" viewBox="0 0 256 495" width="256px" zoomAndPan="magnify"><defs><filter height="300%" id="f3xeic21dcrr1" width="300%" x="-1" y="-1"><feGaussianBlur result="blurOut" stdDeviation="2.0"/><feColorMatrix in="blurOut" result="blurOut2" type="matrix" values="0 0 0 0 0 0 0 0 0 0 0 0 0 0 0 0 0 0 .4 0"/><feOffset dx="4.0" dy="4.0" in="blurOut2" result="blurOut3"/><feBlend in="SourceGraphic" in2="blurOut3" mode="normal"/></filter></defs><g><rect fill="#FFFFFF" filter="url(#f3xeic21dcrr1)" height="270.1953" style="stroke:#A80036;stroke-width:1.0;" width="10" x="102" y="114.5938"/><rect fill="#FFFFFF" filter="url(#f3xeic21dcrr1)" height="213.0625" style="stroke:#000000;stroke-width:2.0;" width="230" x="9" y="164.7266"/><rect fill="#FFFFFF" filter="url(#f3xeic21dcrr1)" height="115.6641" style="stroke:#000000;stroke-width:2.0;" width="204" x="19" y="188.8594"/><rect fill="#FFFFFF" height="35.1328" style="stroke:none;stroke-width:1.0;" width="204" x="19" y="269.3906"/><rect fill="#FFFFFF" height="66.2656" style="stroke:none;stroke-width:1.0;" width="230" x="9" y="311.5234"/><rect fill="#FFFFFF" filter="url(#f3xeic21dcrr1)" height="50.2656" style="stroke:#000000;stroke-width:2.0;" width="172" x="57" y="320.5234"/><line style="stroke:#A80036;stroke-width:1.0;stroke-dasharray:5.0,5.0;" x1="107" x2="107" y1="104.5938" y2="394.7891"/><text fill="#000000" font-family="sans-serif" font-size="14" font-style="italic" lengthAdjust="spacing" textLength="38" x="85" y="84.9951">«My»</text><text fill="#000000" font-family="sans-serif" font-size="14" lengthAdjust="spacing" textLength="90" x="59" y="101.292">Main Service</text><ellipse cx="107" cy="15" fill="#FEFECE" filter="url(#f3xeic21dcrr1)" rx="8" ry="8" style="stroke:#A80036;stroke-width:2.0;"/><path d="M107,23 L107,50 M94,31 L120,31 M107,50 L94,65 M107,50 L120,65 " fill="none" filter="url(#f3xeic21dcrr1)" style="stroke:#A80036;stroke-width:2.0;"/><text fill="#000000" font-family="sans-serif" font-size="14" font-style="italic" lengthAdjust="spacing" textLength="38" x="85" y="406.7842">«My»</text><text fill="#000000" font-family="sans-serif" font-size="14" lengthAdjust="spacing" textLength="90" x="59" y="423.0811">Main Service</text><ellipse cx="107" cy="436.3828" fill="#FEFECE" filter="url(#f3xeic21dcrr1)" rx="8" ry="8" style="stroke:#A80036;stroke-width:2.0;"/><path d="M107,444.3828 L107,471.3828 M94,452.3828 L120,452.3828 M107,471.3828 L94,486.3828 M107,471.3828 L120,486.3828 " fill="none" filter="url(#f3xeic21dcrr1)" style="stroke:#A80036;stroke-width:2.0;"/><rect fill="#FFFFFF" filter="url(#f3xeic21dcrr1)" height="270.1953" style="stroke:#A80036;stroke-width:1.0;" width="10" x="102" y="114.5938"/><rect fill="#EEEEEE" filter="url(#f3xeic21dcrr1)" height="3" style="stroke:#EEEEEE;stroke-width:1.0;" width="249" x="0" y="135.1602"/><line style="stroke:#000000;stroke-width:1.0;" x1="0" x2="249" y1="135.1602" y2="135.1602"/><line style="stroke:#000000;stroke-width:1.0;" x1="0" x2="249" y1="138.1602" y2="138.1602"/><rect fill="#EEEEEE" filter="url(#f3xeic21dcrr1)" height="23.1328" style="stroke:#000000;stroke-width:2.0;" width="67" x="91" y="124.5938"/><text fill="#000000" font-family="sans-serif" font-size="13" font-weight="bold" lengthAdjust="spacing" textLength="48" x="97" y="140.6606">If-else</text><path d="M9,164.7266 L75,164.7266 L75,171.7266 L65,181.7266 L9,181.7266 L9,164.7266 " fill="#EEEEEE" style="stroke:#000000;stroke-width:1.0;"/><rect fill="none" height="213.0625" style="stroke:#000000;stroke-width:2.0;" width="230" x="9" y="164.7266"/><text fill="#000000" font-family="sans-serif" font-size="13" font-weight="bold" lengthAdjust="spacing" textLength="21" x="24" y="177.7935">alt</text><text fill="#000000" font-family="sans-serif" font-size="11" font-weight="bold" lengthAdjust="spacing" textLength="138" x="90" y="176.937">[the weather is nice]</text><path d="M19,188.8594 L85,188.8594 L85,195.8594 L75,205.8594 L19,205.8594 L19,188.8594 " fill="#EEEEEE" style="stroke:#000000;stroke-width:1.0;"/><rect fill="none" height="115.6641" style="stroke:#000000;stroke-width:2.0;" width="204" x="19" y="188.8594"/><text fill="#000000" font-family="sans-serif" font-size="13" font-weight="bold" lengthAdjust="spacing" textLength="21" x="34" y="201.9263">alt</text><text fill="#000000" font-family="sans-serif" font-size="11" font-weight="bold" lengthAdjust="spacing" textLength="118" x="100" y="201.0698">[it is over a 30°C]</text><polygon fill="#FBFB77" filter="url(#f3xeic21dcrr1)" points="39,210.9922,174,210.9922,184,236.9922,174,263.9922,39,263.9922,29,236.9922,39,210.9922" style="stroke:#A80036;stroke-width:1.0;"/><text fill="#000000" font-family="sans-serif" font-size="13" lengthAdjust="spacing" textLength="21" x="41" y="227.0591">do:</text><text fill="#000000" font-family="sans-serif" font-size="13" lengthAdjust="spacing" textLength="48" x="57" y="242.1919">nothing</text><text fill="#000000" font-family="sans-serif" font-size="13" lengthAdjust="spacing" textLength="115" x="57" y="257.3247">because its to hot</text><line style="stroke:#000000;stroke-width:1.0;stroke-dasharray:2.0,2.0;" x1="19" x2="223" y1="270.3906" y2="270.3906"/><polygon fill="#FBFB77" filter="url(#f3xeic21dcrr1)" points="57,276.3906,157,276.3906,167,287.3906,157,299.3906,57,299.3906,47,287.3906,57,276.3906" style="stroke:#A80036;stroke-width:1.0;"/><text fill="#000000" font-family="sans-serif" font-size="13" lengthAdjust="spacing" textLength="96" x="59" y="292.4575">do: some work</text><line style="stroke:#000000;stroke-width:1.0;stroke-dasharray:2.0,2.0;" x1="9" x2="239" y1="312.5234" y2="312.5234"/><path d="M57,320.5234 L123,320.5234 L123,327.5234 L113,337.5234 L57,337.5234 L57,320.5234 " fill="#EEEEEE" style="stroke:#000000;stroke-width:1.0;"/><rect fill="none" height="50.2656" style="stroke:#000000;stroke-width:2.0;" width="172" x="57" y="320.5234"/><text fill="#000000" font-family="sans-serif" font-size="13" font-weight="bold" lengthAdjust="spacing" textLength="21" x="72" y="333.5903">alt</text><text fill="#000000" font-family="sans-serif" font-size="11" font-weight="bold" lengthAdjust="spacing" textLength="86" x="138" y="332.7339">[it is raining]</text><polygon fill="#FBFB77" filter="url(#f3xeic21dcrr1)" points="77,342.6563,137,342.6563,147,353.6563,137,365.6563,77,365.6563,67,353.6563,77,342.6563" style="stroke:#A80036;stroke-width:1.0;"/><text fill="#000000" font-family="sans-serif" font-size="13" lengthAdjust="spacing" textLength="56" x="79" y="358.7231">do: work</text><!--MD5=[27ae771d1d1addc0916f372d1fa54be4]
@startuml


== If-else ==

actor "Main Service" as MainService <<My>>

activate MainService
alt the weather is nice
    alt it is over a 30°C
        hnote over MainService
        do:
            nothing
            because its to hot
        end hnote
    else
        hnote over MainService
        do: some work
        end hnote
    end
else
    alt it is raining
        hnote over MainService
        do: work
        end hnote
    end
end

deactivate MainService
@enduml

PlantUML version 1.2021.7(Sun May 23 12:40:07 UTC 2021)
(GPL source distribution)
Java Runtime: Java(TM) SE Runtime Environment
JVM: Java HotSpot(TM) 64-Bit Server VM
Default Encoding: UTF-8
Language: en
Country: US
--></g></svg>