<?xml version="1.0" encoding="UTF-8" standalone="no"?><svg xmlns="http://www.w3.org/2000/svg" xmlns:xlink="http://www.w3.org/1999/xlink" contentScriptType="application/ecmascript" contentStyleType="text/css" height="307px" preserveAspectRatio="none" style="width:136px;height:307px;background:#FFFFFF;" version="1.1" viewBox="0 0 136 307" width="136px" zoomAndPan="magnify"><defs><filter height="300%" id="f1bhu1ij1vanah" width="300%" x="-1" y="-1"><feGaussianBlur result="blurOut" stdDeviation="2.0"/><feColorMatrix in="blurOut" result="blurOut2" type="matrix" values="0 0 0 0 0 0 0 0 0 0 0 0 0 0 0 0 0 0 .4 0"/><feOffset dx="4.0" dy="4.0" in="blurOut2" result="blurOut3"/><feBlend in="SourceGraphic" in2="blurOut3" mode="normal"/></filter></defs><g><rect fill="#FFFFFF" filter="url(#f1bhu1ij1vanah)" height="82.2656" style="stroke:#A80036;stroke-width:1.0;" width="10" x="59" y="114.5938"/><line style="stroke:#A80036;stroke-width:1.0;stroke-dasharray:5.0,5.0;" x1="64" x2="64" y1="104.5938" y2="206.8594"/><text fill="#000000" font-family="sans-serif" font-size="14" font-style="italic" lengthAdjust="spacing" textLength="38" x="42" y="84.9951">«My»</text><text fill="#000000" font-family="sans-serif" font-size="14" lengthAdjust="spacing" textLength="90" x="16" y="101.292">Main Service</text><ellipse cx="64" cy="15" fill="#FEFECE" filter="url(#f1bhu1ij1vanah)" rx="8" ry="8" style="stroke:#A80036;stroke-width:2.0;"/><path d="M64,23 L64,50 M51,31 L77,31 M64,50 L51,65 M64,50 L77,65 " fill="none" filter="url(#f1bhu1ij1vanah)" style="stroke:#A80036;stroke-width:2.0;"/><text fill="#000000" font-family="sans-serif" font-size="14" font-style="italic" lengthAdjust="spacing" textLength="38" x="42" y="218.8545">«My»</text><text fill="#000000" font-family="sans-serif" font-size="14" lengthAdjust="spacing" textLength="90" x="16" y="235.1514">Main Service</text><ellipse cx="64" cy="248.4531" fill="#FEFECE" filter="url(#f1bhu1ij1vanah)" rx="8" ry="8" style="stroke:#A80036;stroke-width:2.0;"/><path d="M64,256.4531 L64,283.4531 M51,264.4531 L77,264.4531 M64,283.4531 L51,298.4531 M64,283.4531 L77,298.4531 " fill="none" filter="url(#f1bhu1ij1vanah)" style="stroke:#A80036;stroke-width:2.0;"/><rect fill="#FFFFFF" filter="url(#f1bhu1ij1vanah)" height="82.2656" style="stroke:#A80036;stroke-width:1.0;" width="10" x="59" y="114.5938"/><rect fill="#EEEEEE" filter="url(#f1bhu1ij1vanah)" height="3" style="stroke:#EEEEEE;stroke-width:1.0;" width="129" x="0" y="135.1602"/><line style="stroke:#000000;stroke-width:1.0;" x1="0" x2="129" y1="135.1602" y2="135.1602"/><line style="stroke:#000000;stroke-width:1.0;" x1="0" x2="129" y1="138.1602" y2="138.1602"/><rect fill="#EEEEEE" filter="url(#f1bhu1ij1vanah)" height="23.1328" style="stroke:#000000;stroke-width:2.0;" width="73" x="28" y="124.5938"/><text fill="#000000" font-family="sans-serif" font-size="13" font-weight="bold" lengthAdjust="spacing" textLength="54" x="34" y="140.6606">Lifeline</text><path d="M5,162.7266 L5,187.7266 L120,187.7266 L120,172.7266 L110,162.7266 L5,162.7266 " fill="#FBFB77" filter="url(#f1bhu1ij1vanah)" style="stroke:#A80036;stroke-width:1.0;"/><path d="M110,162.7266 L110,172.7266 L120,172.7266 L110,162.7266 " fill="#FBFB77" style="stroke:#A80036;stroke-width:1.0;"/><text fill="#000000" font-family="sans-serif" font-size="13" lengthAdjust="spacing" textLength="94" x="11" y="179.7935">this is a lifeline</text><!--MD5=[36100330ca1236de24ab3d000ffda3b7]
@startuml


== Lifeline ==

actor "Main Service" as MainService <<My>>

activate MainService
note over MainService: this is a lifeline

deactivate MainService
@enduml

PlantUML version 1.2021.7(Sun May 23 12:40:07 UTC 2021)
(GPL source distribution)
Java Runtime: Java(TM) SE Runtime Environment
JVM: Java HotSpot(TM) 64-Bit Server VM
Default Encoding: UTF-8
Language: en
Country: US
--></g></svg>