<?xml version="1.0" encoding="UTF-8" standalone="no"?><svg xmlns="http://www.w3.org/2000/svg" xmlns:xlink="http://www.w3.org/1999/xlink" contentScriptType="application/ecmascript" contentStyleType="text/css" height="332px" preserveAspectRatio="none" style="width:228px;height:332px;background:#FFFFFF;" version="1.1" viewBox="0 0 228 332" width="228px" zoomAndPan="magnify"><defs><filter height="300%" id="fz8uv82v7k0x4" width="300%" x="-1" y="-1"><feGaussianBlur result="blurOut" stdDeviation="2.0"/><feColorMatrix in="blurOut" result="blurOut2" type="matrix" values="0 0 0 0 0 0 0 0 0 0 0 0 0 0 0 0 0 0 .4 0"/><feOffset dx="4.0" dy="4.0" in="blurOut2" result="blurOut3"/><feBlend in="SourceGraphic" in2="blurOut3" mode="normal"/></filter></defs><g><rect fill="#FFFFFF" filter="url(#fz8uv82v7k0x4)" height="107.3984" style="stroke:#A80036;stroke-width:1.0;" width="10" x="73" y="114.5938"/><rect fill="#FFFFFF" filter="url(#fz8uv82v7k0x4)" height="50.2656" style="stroke:#000000;stroke-width:2.0;" width="201" x="9" y="164.7266"/><line style="stroke:#A80036;stroke-width:1.0;stroke-dasharray:5.0,5.0;" x1="78" x2="78" y1="104.5938" y2="231.9922"/><text fill="#000000" font-family="sans-serif" font-size="14" font-style="italic" lengthAdjust="spacing" textLength="38" x="56" y="84.9951">«My»</text><text fill="#000000" font-family="sans-serif" font-size="14" lengthAdjust="spacing" textLength="90" x="30" y="101.292">Main Service</text><ellipse cx="78" cy="15" fill="#FEFECE" filter="url(#fz8uv82v7k0x4)" rx="8" ry="8" style="stroke:#A80036;stroke-width:2.0;"/><path d="M78,23 L78,50 M65,31 L91,31 M78,50 L65,65 M78,50 L91,65 " fill="none" filter="url(#fz8uv82v7k0x4)" style="stroke:#A80036;stroke-width:2.0;"/><text fill="#000000" font-family="sans-serif" font-size="14" font-style="italic" lengthAdjust="spacing" textLength="38" x="56" y="243.9873">«My»</text><text fill="#000000" font-family="sans-serif" font-size="14" lengthAdjust="spacing" textLength="90" x="30" y="260.2842">Main Service</text><ellipse cx="78" cy="273.5859" fill="#FEFECE" filter="url(#fz8uv82v7k0x4)" rx="8" ry="8" style="stroke:#A80036;stroke-width:2.0;"/><path d="M78,281.5859 L78,308.5859 M65,289.5859 L91,289.5859 M78,308.5859 L65,323.5859 M78,308.5859 L91,323.5859 " fill="none" filter="url(#fz8uv82v7k0x4)" style="stroke:#A80036;stroke-width:2.0;"/><rect fill="#FFFFFF" filter="url(#fz8uv82v7k0x4)" height="107.3984" style="stroke:#A80036;stroke-width:1.0;" width="10" x="73" y="114.5938"/><rect fill="#EEEEEE" filter="url(#fz8uv82v7k0x4)" height="3" style="stroke:#EEEEEE;stroke-width:1.0;" width="221" x="0" y="135.1602"/><line style="stroke:#000000;stroke-width:1.0;" x1="0" x2="221" y1="135.1602" y2="135.1602"/><line style="stroke:#000000;stroke-width:1.0;" x1="0" x2="221" y1="138.1602" y2="138.1602"/><rect fill="#EEEEEE" filter="url(#fz8uv82v7k0x4)" height="23.1328" style="stroke:#000000;stroke-width:2.0;" width="56" x="82.5" y="124.5938"/><text fill="#000000" font-family="sans-serif" font-size="13" font-weight="bold" lengthAdjust="spacing" textLength="37" x="88.5" y="140.6606">Loop</text><path d="M9,164.7266 L87,164.7266 L87,171.7266 L77,181.7266 L9,181.7266 L9,164.7266 " fill="#EEEEEE" style="stroke:#000000;stroke-width:1.0;"/><rect fill="none" height="50.2656" style="stroke:#000000;stroke-width:2.0;" width="201" x="9" y="164.7266"/><text fill="#000000" font-family="sans-serif" font-size="13" font-weight="bold" lengthAdjust="spacing" textLength="33" x="24" y="177.7935">loop</text><text fill="#000000" font-family="sans-serif" font-size="11" font-weight="bold" lengthAdjust="spacing" textLength="103" x="102" y="176.937">[until it's done]</text><polygon fill="#FBFB77" filter="url(#fz8uv82v7k0x4)" points="29,186.8594,126,186.8594,136,197.8594,126,209.8594,29,209.8594,19,197.8594,29,186.8594" style="stroke:#A80036;stroke-width:1.0;"/><text fill="#000000" font-family="sans-serif" font-size="13" lengthAdjust="spacing" textLength="93" x="31" y="202.9263">do: something</text><!--MD5=[ca3f3521a3da0f20d2086d920aa274f4]
@startuml


== Loop ==

actor "Main Service" as MainService <<My>>

activate MainService
loop until it's done
    hnote over MainService
    do: something
    end hnote
end

deactivate MainService
@enduml

PlantUML version 1.2021.7(Sun May 23 12:40:07 UTC 2021)
(GPL source distribution)
Java Runtime: Java(TM) SE Runtime Environment
JVM: Java HotSpot(TM) 64-Bit Server VM
Default Encoding: UTF-8
Language: en
Country: US
--></g></svg>