<?xml version="1.0" encoding="UTF-8" standalone="no"?><svg xmlns="http://www.w3.org/2000/svg" xmlns:xlink="http://www.w3.org/1999/xlink" contentScriptType="application/ecmascript" contentStyleType="text/css" height="413px" preserveAspectRatio="none" style="width:417px;height:413px;background:#FFFFFF;" version="1.1" viewBox="0 0 417 413" width="417px" zoomAndPan="magnify"><defs><filter height="300%" id="f1rgs013ytp2cn" width="300%" x="-1" y="-1"><feGaussianBlur result="blurOut" stdDeviation="2.0"/><feColorMatrix in="blurOut" result="blurOut2" type="matrix" values="0 0 0 0 0 0 0 0 0 0 0 0 0 0 0 0 0 0 .4 0"/><feOffset dx="4.0" dy="4.0" in="blurOut2" result="blurOut3"/><feBlend in="SourceGraphic" in2="blurOut3" mode="normal"/></filter></defs><g><rect fill="#FFFFFF" filter="url(#f1rgs013ytp2cn)" height="180.7969" style="stroke:#A80036;stroke-width:1.0;" width="10" x="48" y="114.5938"/><line style="stroke:#A80036;stroke-width:1.0;stroke-dasharray:5.0,5.0;" x1="53" x2="53" y1="104.5938" y2="313.3906"/><line style="stroke:#A80036;stroke-width:1.0;stroke-dasharray:5.0,5.0;" x1="188" x2="188" y1="104.5938" y2="313.3906"/><line style="stroke:#A80036;stroke-width:1.0;stroke-dasharray:5.0,5.0;" x1="340" x2="340" y1="104.5938" y2="313.3906"/><text fill="#000000" font-family="sans-serif" font-size="14" font-style="italic" lengthAdjust="spacing" textLength="38" x="31" y="84.9951">«My»</text><text fill="#000000" font-family="sans-serif" font-size="14" lengthAdjust="spacing" textLength="90" x="5" y="101.292">Main Service</text><ellipse cx="53" cy="15" fill="#FEFECE" filter="url(#f1rgs013ytp2cn)" rx="8" ry="8" style="stroke:#A80036;stroke-width:2.0;"/><path d="M53,23 L53,50 M40,31 L66,31 M53,50 L40,65 M53,50 L66,65 " fill="none" filter="url(#f1rgs013ytp2cn)" style="stroke:#A80036;stroke-width:2.0;"/><text fill="#000000" font-family="sans-serif" font-size="14" font-style="italic" lengthAdjust="spacing" textLength="38" x="31" y="325.3857">«My»</text><text fill="#000000" font-family="sans-serif" font-size="14" lengthAdjust="spacing" textLength="90" x="5" y="341.6826">Main Service</text><ellipse cx="53" cy="354.9844" fill="#FEFECE" filter="url(#f1rgs013ytp2cn)" rx="8" ry="8" style="stroke:#A80036;stroke-width:2.0;"/><path d="M53,362.9844 L53,389.9844 M40,370.9844 L66,370.9844 M53,389.9844 L40,404.9844 M53,389.9844 L66,404.9844 " fill="none" filter="url(#f1rgs013ytp2cn)" style="stroke:#A80036;stroke-width:2.0;"/><text fill="#000000" font-family="sans-serif" font-size="14" font-style="italic" lengthAdjust="spacing" textLength="38" x="166" y="84.9951">«My»</text><text fill="#000000" font-family="sans-serif" font-size="14" lengthAdjust="spacing" textLength="148" x="111" y="101.292">InteractionDatabase</text><path d="M170,36 C170,26 188,26 188,26 C188,26 206,26 206,36 L206,62 C206,72 188,72 188,72 C188,72 170,72 170,62 L170,36 " fill="#FEFECE" filter="url(#f1rgs013ytp2cn)" style="stroke:#000000;stroke-width:1.5;"/><path d="M170,36 C170,46 188,46 188,46 C188,46 206,46 206,36 " fill="none" style="stroke:#000000;stroke-width:1.5;"/><text fill="#000000" font-family="sans-serif" font-size="14" font-style="italic" lengthAdjust="spacing" textLength="38" x="166" y="325.3857">«My»</text><text fill="#000000" font-family="sans-serif" font-size="14" lengthAdjust="spacing" textLength="148" x="111" y="341.6826">InteractionDatabase</text><path d="M170,354.9844 C170,344.9844 188,344.9844 188,344.9844 C188,344.9844 206,344.9844 206,354.9844 L206,380.9844 C206,390.9844 188,390.9844 188,390.9844 C188,390.9844 170,390.9844 170,380.9844 L170,354.9844 " fill="#FEFECE" filter="url(#f1rgs013ytp2cn)" style="stroke:#000000;stroke-width:1.5;"/><path d="M170,354.9844 C170,364.9844 188,364.9844 188,364.9844 C188,364.9844 206,364.9844 206,354.9844 " fill="none" style="stroke:#000000;stroke-width:1.5;"/><text fill="#000000" font-family="sans-serif" font-size="14" font-style="italic" lengthAdjust="spacing" textLength="38" x="318" y="84.9951">«My»</text><text fill="#000000" font-family="sans-serif" font-size="14" lengthAdjust="spacing" textLength="124" x="275" y="101.292">InteractionCache</text><path d="M322,36 C322,26 340,26 340,26 C340,26 358,26 358,36 L358,62 C358,72 340,72 340,72 C340,72 322,72 322,62 L322,36 " fill="#FEFECE" filter="url(#f1rgs013ytp2cn)" style="stroke:#000000;stroke-width:1.5;"/><path d="M322,36 C322,46 340,46 340,46 C340,46 358,46 358,36 " fill="none" style="stroke:#000000;stroke-width:1.5;"/><text fill="#000000" font-family="sans-serif" font-size="14" font-style="italic" lengthAdjust="spacing" textLength="38" x="318" y="325.3857">«My»</text><text fill="#000000" font-family="sans-serif" font-size="14" lengthAdjust="spacing" textLength="124" x="275" y="341.6826">InteractionCache</text><path d="M322,354.9844 C322,344.9844 340,344.9844 340,344.9844 C340,344.9844 358,344.9844 358,354.9844 L358,380.9844 C358,390.9844 340,390.9844 340,390.9844 C340,390.9844 322,390.9844 322,380.9844 L322,354.9844 " fill="#FEFECE" filter="url(#f1rgs013ytp2cn)" style="stroke:#000000;stroke-width:1.5;"/><path d="M322,354.9844 C322,364.9844 340,364.9844 340,364.9844 C340,364.9844 358,364.9844 358,354.9844 " fill="none" style="stroke:#000000;stroke-width:1.5;"/><rect fill="#FFFFFF" filter="url(#f1rgs013ytp2cn)" height="180.7969" style="stroke:#A80036;stroke-width:1.0;" width="10" x="48" y="114.5938"/><rect fill="#EEEEEE" filter="url(#f1rgs013ytp2cn)" height="3" style="stroke:#EEEEEE;stroke-width:1.0;" width="410" x="0" y="135.1602"/><line style="stroke:#000000;stroke-width:1.0;" x1="0" x2="410" y1="135.1602" y2="135.1602"/><line style="stroke:#000000;stroke-width:1.0;" x1="0" x2="410" y1="138.1602" y2="138.1602"/><rect fill="#EEEEEE" filter="url(#f1rgs013ytp2cn)" height="23.1328" style="stroke:#000000;stroke-width:2.0;" width="97" x="156.5" y="124.5938"/><text fill="#000000" font-family="sans-serif" font-size="13" font-weight="bold" lengthAdjust="spacing" textLength="78" x="162.5" y="140.6606">Post Data</text><line style="stroke:#A80036;stroke-width:1.0;" x1="186" x2="176" y1="178.8594" y2="174.8594"/><line style="stroke:#A80036;stroke-width:1.0;" x1="186" x2="176" y1="178.8594" y2="182.8594"/><line style="stroke:#A80036;stroke-width:1.0;" x1="58" x2="187" y1="178.8594" y2="178.8594"/><text fill="#000000" font-family="sans-serif" font-size="13" lengthAdjust="spacing" textLength="105" x="65" y="173.7935">InteractionEntity</text><line style="stroke:#A80036;stroke-width:1.0;" x1="338" x2="328" y1="207.9922" y2="203.9922"/><line style="stroke:#A80036;stroke-width:1.0;" x1="338" x2="328" y1="207.9922" y2="211.9922"/><line style="stroke:#A80036;stroke-width:1.0;" x1="58" x2="339" y1="207.9922" y2="207.9922"/><a href="" target="_top" title="InteractionEvent.Confirmed" xlink:actuate="onRequest" xlink:href="" xlink:show="new" xlink:title="InteractionEvent.Confirmed" xlink:type="simple"><text fill="#0000FF" font-family="sans-serif" font-size="13" lengthAdjust="spacing" text-decoration="underline" textLength="67" x="65" y="202.9263">Confirmed</text></a><line style="stroke:#A80036;stroke-width:1.0;" x1="338" x2="328" y1="237.125" y2="233.125"/><line style="stroke:#A80036;stroke-width:1.0;" x1="338" x2="328" y1="237.125" y2="241.125"/><line style="stroke:#A80036;stroke-width:1.0;" x1="58" x2="339" y1="237.125" y2="237.125"/><a href="" target="_top" title="InteractionEvent.Rejected" xlink:actuate="onRequest" xlink:href="" xlink:show="new" xlink:title="InteractionEvent.Rejected" xlink:type="simple"><text fill="#0000FF" font-family="sans-serif" font-size="13" lengthAdjust="spacing" text-decoration="underline" textLength="56" x="65" y="232.0591">Rejected</text></a><line style="stroke:#A80036;stroke-width:1.0;" x1="338" x2="328" y1="266.2578" y2="262.2578"/><line style="stroke:#A80036;stroke-width:1.0;" x1="338" x2="328" y1="266.2578" y2="270.2578"/><line style="stroke:#A80036;stroke-width:1.0;" x1="58" x2="339" y1="266.2578" y2="266.2578"/><a href="" target="_top" title="InteractionEvent.Rejected.Expired" xlink:actuate="onRequest" xlink:href="" xlink:show="new" xlink:title="InteractionEvent.Rejected.Expired" xlink:type="simple"><text fill="#0000FF" font-family="sans-serif" font-size="13" lengthAdjust="spacing" text-decoration="underline" textLength="48" x="65" y="261.1919">Expired</text></a><line style="stroke:#A80036;stroke-width:1.0;" x1="338" x2="328" y1="295.3906" y2="291.3906"/><line style="stroke:#A80036;stroke-width:1.0;" x1="338" x2="328" y1="295.3906" y2="299.3906"/><line style="stroke:#A80036;stroke-width:1.0;" x1="53" x2="339" y1="295.3906" y2="295.3906"/><a href="" target="_top" title="InteractionEvent.Rejected.Rejected" xlink:actuate="onRequest" xlink:href="" xlink:show="new" xlink:title="InteractionEvent.Rejected.Rejected" xlink:type="simple"><text fill="#0000FF" font-family="sans-serif" font-size="13" lengthAdjust="spacing" text-decoration="underline" textLength="56" x="60" y="290.3247">Rejected</text></a><!--MD5=[6afadc425b38490165ddf269aa7d2185]
@startuml


== Post Data ==

actor "Main Service" as MainService <<My>>
database "InteractionDatabase" as InteractionDatabase <<My>>
database "InteractionCache" as InteractionCache <<My>>

activate MainService
MainService ->> InteractionDatabase: InteractionEntity
MainService ->> InteractionCache: [[{InteractionEvent.Confirmed}Confirmed]]
MainService ->> InteractionCache: [[{InteractionEvent.Rejected}Rejected]]
MainService ->> InteractionCache: [[{InteractionEvent.Rejected.Expired}Expired]]
MainService ->> InteractionCache: [[{InteractionEvent.Rejected.Rejected}Rejected]]

deactivate MainService
@enduml

PlantUML version 1.2021.7(Sun May 23 12:40:07 UTC 2021)
(GPL source distribution)
Java Runtime: Java(TM) SE Runtime Environment
JVM: Java HotSpot(TM) 64-Bit Server VM
Default Encoding: UTF-8
Language: en
Country: US
--></g></svg>