<?xml version="1.0" encoding="UTF-8" standalone="no"?><svg xmlns="http://www.w3.org/2000/svg" xmlns:xlink="http://www.w3.org/1999/xlink" contentScriptType="application/ecmascript" contentStyleType="text/css" height="311px" preserveAspectRatio="none" style="width:221px;height:311px;background:#FFFFFF;" version="1.1" viewBox="0 0 221 311" width="221px" zoomAndPan="magnify"><defs><filter height="300%" id="f101vqfnonstoz" width="300%" x="-1" y="-1"><feGaussianBlur result="blurOut" stdDeviation="2.0"/><feColorMatrix in="blurOut" result="blurOut2" type="matrix" values="0 0 0 0 0 0 0 0 0 0 0 0 0 0 0 0 0 0 .4 0"/><feOffset dx="4.0" dy="4.0" in="blurOut2" result="blurOut3"/><feBlend in="SourceGraphic" in2="blurOut3" mode="normal"/></filter></defs><g><rect fill="#FFFFFF" filter="url(#f101vqfnonstoz)" height="86.2656" style="stroke:#A80036;stroke-width:1.0;" width="10" x="48" y="114.5938"/><line style="stroke:#A80036;stroke-width:1.0;stroke-dasharray:5.0,5.0;" x1="53" x2="53" y1="104.5938" y2="210.8594"/><text fill="#000000" font-family="sans-serif" font-size="14" font-style="italic" lengthAdjust="spacing" textLength="38" x="31" y="84.9951">«My»</text><text fill="#000000" font-family="sans-serif" font-size="14" lengthAdjust="spacing" textLength="90" x="5" y="101.292">Main Service</text><ellipse cx="53" cy="15" fill="#FEFECE" filter="url(#f101vqfnonstoz)" rx="8" ry="8" style="stroke:#A80036;stroke-width:2.0;"/><path d="M53,23 L53,50 M40,31 L66,31 M53,50 L40,65 M53,50 L66,65 " fill="none" filter="url(#f101vqfnonstoz)" style="stroke:#A80036;stroke-width:2.0;"/><text fill="#000000" font-family="sans-serif" font-size="14" font-style="italic" lengthAdjust="spacing" textLength="38" x="31" y="222.8545">«My»</text><text fill="#000000" font-family="sans-serif" font-size="14" lengthAdjust="spacing" textLength="90" x="5" y="239.1514">Main Service</text><ellipse cx="53" cy="252.4531" fill="#FEFECE" filter="url(#f101vqfnonstoz)" rx="8" ry="8" style="stroke:#A80036;stroke-width:2.0;"/><path d="M53,260.4531 L53,287.4531 M40,268.4531 L66,268.4531 M53,287.4531 L40,302.4531 M53,287.4531 L66,302.4531 " fill="none" filter="url(#f101vqfnonstoz)" style="stroke:#A80036;stroke-width:2.0;"/><rect fill="#FFFFFF" filter="url(#f101vqfnonstoz)" height="86.2656" style="stroke:#A80036;stroke-width:1.0;" width="10" x="48" y="114.5938"/><rect fill="#EEEEEE" filter="url(#f101vqfnonstoz)" height="3" style="stroke:#EEEEEE;stroke-width:1.0;" width="214" x="0" y="135.1602"/><line style="stroke:#000000;stroke-width:1.0;" x1="0" x2="214" y1="135.1602" y2="135.1602"/><line style="stroke:#000000;stroke-width:1.0;" x1="0" x2="214" y1="138.1602" y2="138.1602"/><rect fill="#EEEEEE" filter="url(#f101vqfnonstoz)" height="23.1328" style="stroke:#000000;stroke-width:2.0;" width="76" x="69" y="124.5938"/><text fill="#000000" font-family="sans-serif" font-size="13" font-weight="bold" lengthAdjust="spacing" textLength="57" x="75" y="140.6606">Section</text><rect fill="#EEEEEE" filter="url(#f101vqfnonstoz)" height="3" style="stroke:#EEEEEE;stroke-width:1.0;" width="214" x="0" y="178.293"/><line style="stroke:#000000;stroke-width:1.0;" x1="0" x2="214" y1="178.293" y2="178.293"/><line style="stroke:#000000;stroke-width:1.0;" x1="0" x2="214" y1="181.293" y2="181.293"/><rect fill="#EEEEEE" filter="url(#f101vqfnonstoz)" height="23.1328" style="stroke:#000000;stroke-width:2.0;" width="190" x="12" y="167.7266"/><text fill="#000000" font-family="sans-serif" font-size="13" font-weight="bold" lengthAdjust="spacing" textLength="171" x="18" y="183.7935">There is just a section</text><!--MD5=[ed4840dd2b94e9174d40e70fa1b30570]
@startuml


== Section ==

actor "Main Service" as MainService <<My>>

activate MainService

== There is just a section ==


deactivate MainService
@enduml

PlantUML version 1.2021.7(Sun May 23 12:40:07 UTC 2021)
(GPL source distribution)
Java Runtime: Java(TM) SE Runtime Environment
JVM: Java HotSpot(TM) 64-Bit Server VM
Default Encoding: UTF-8
Language: en
Country: US
--></g></svg>