<?xml version="1.0" encoding="UTF-8" standalone="no"?><svg xmlns="http://www.w3.org/2000/svg" xmlns:xlink="http://www.w3.org/1999/xlink" contentScriptType="application/ecmascript" contentStyleType="text/css" height="523px" preserveAspectRatio="none" style="width:323px;height:523px;background:#FFFFFF;" version="1.1" viewBox="0 0 323 523" width="323px" zoomAndPan="magnify"><defs><filter height="300%" id="fll1ydq1cyjck" width="300%" x="-1" y="-1"><feGaussianBlur result="blurOut" stdDeviation="2.0"/><feColorMatrix in="blurOut" result="blurOut2" type="matrix" values="0 0 0 0 0 0 0 0 0 0 0 0 0 0 0 0 0 0 .4 0"/><feOffset dx="4.0" dy="4.0" in="blurOut2" result="blurOut3"/><feBlend in="SourceGraphic" in2="blurOut3" mode="normal"/></filter></defs><g><rect fill="#FFFFFF" filter="url(#fll1ydq1cyjck)" height="290.4609" style="stroke:#A80036;stroke-width:1.0;" width="10" x="48" y="114.5938"/><rect fill="#FFFFFF" filter="url(#fll1ydq1cyjck)" height="68.2656" style="stroke:#A80036;stroke-width:1.0;" width="10" x="218" y="178.8594"/><rect fill="#FFFFFF" filter="url(#fll1ydq1cyjck)" height="68.2656" style="stroke:#A80036;stroke-width:1.0;" width="10" x="218" y="336.7891"/><line style="stroke:#A80036;stroke-width:1.0;stroke-dasharray:5.0,5.0;" x1="53" x2="53" y1="104.5938" y2="423.0547"/><line style="stroke:#A80036;stroke-width:1.0;stroke-dasharray:5.0,5.0;" x1="222.5" x2="222.5" y1="104.5938" y2="423.0547"/><text fill="#000000" font-family="sans-serif" font-size="14" font-style="italic" lengthAdjust="spacing" textLength="38" x="31" y="84.9951">«My»</text><text fill="#000000" font-family="sans-serif" font-size="14" lengthAdjust="spacing" textLength="90" x="5" y="101.292">Main Service</text><ellipse cx="53" cy="15" fill="#FEFECE" filter="url(#fll1ydq1cyjck)" rx="8" ry="8" style="stroke:#A80036;stroke-width:2.0;"/><path d="M53,23 L53,50 M40,31 L66,31 M53,50 L40,65 M53,50 L66,65 " fill="none" filter="url(#fll1ydq1cyjck)" style="stroke:#A80036;stroke-width:2.0;"/><text fill="#000000" font-family="sans-serif" font-size="14" font-style="italic" lengthAdjust="spacing" textLength="38" x="31" y="435.0498">«My»</text><text fill="#000000" font-family="sans-serif" font-size="14" lengthAdjust="spacing" textLength="90" x="5" y="451.3467">Main Service</text><ellipse cx="53" cy="464.6484" fill="#FEFECE" filter="url(#fll1ydq1cyjck)" rx="8" ry="8" style="stroke:#A80036;stroke-width:2.0;"/><path d="M53,472.6484 L53,499.6484 M40,480.6484 L66,480.6484 M53,499.6484 L40,514.6484 M53,499.6484 L66,514.6484 " fill="none" filter="url(#fll1ydq1cyjck)" style="stroke:#A80036;stroke-width:2.0;"/><rect fill="#FEFECE" filter="url(#fll1ydq1cyjck)" height="46.5938" style="stroke:#A80036;stroke-width:1.5;" width="67" x="187.5" y="53"/><text fill="#000000" font-family="sans-serif" font-size="14" font-style="italic" lengthAdjust="spacing" textLength="38" x="202" y="72.9951">«My»</text><text fill="#000000" font-family="sans-serif" font-size="14" lengthAdjust="spacing" textLength="53" x="194.5" y="89.292">Service</text><rect fill="#FEFECE" filter="url(#fll1ydq1cyjck)" height="46.5938" style="stroke:#A80036;stroke-width:1.5;" width="67" x="187.5" y="422.0547"/><text fill="#000000" font-family="sans-serif" font-size="14" font-style="italic" lengthAdjust="spacing" textLength="38" x="202" y="442.0498">«My»</text><text fill="#000000" font-family="sans-serif" font-size="14" lengthAdjust="spacing" textLength="53" x="194.5" y="458.3467">Service</text><rect fill="#FFFFFF" filter="url(#fll1ydq1cyjck)" height="290.4609" style="stroke:#A80036;stroke-width:1.0;" width="10" x="48" y="114.5938"/><rect fill="#FFFFFF" filter="url(#fll1ydq1cyjck)" height="68.2656" style="stroke:#A80036;stroke-width:1.0;" width="10" x="218" y="178.8594"/><rect fill="#FFFFFF" filter="url(#fll1ydq1cyjck)" height="68.2656" style="stroke:#A80036;stroke-width:1.0;" width="10" x="218" y="336.7891"/><rect fill="#EEEEEE" filter="url(#fll1ydq1cyjck)" height="3" style="stroke:#EEEEEE;stroke-width:1.0;" width="316" x="0" y="135.1602"/><line style="stroke:#000000;stroke-width:1.0;" x1="0" x2="316" y1="135.1602" y2="135.1602"/><line style="stroke:#000000;stroke-width:1.0;" x1="0" x2="316" y1="138.1602" y2="138.1602"/><rect fill="#EEEEEE" filter="url(#fll1ydq1cyjck)" height="23.1328" style="stroke:#000000;stroke-width:2.0;" width="168" x="74" y="124.5938"/><text fill="#000000" font-family="sans-serif" font-size="13" font-weight="bold" lengthAdjust="spacing" textLength="149" x="80" y="140.6606">Service Method Call</text><polygon fill="#A80036" points="206,174.8594,216,178.8594,206,182.8594,210,178.8594" style="stroke:#A80036;stroke-width:1.0;"/><line style="stroke:#A80036;stroke-width:1.0;" x1="58" x2="212" y1="178.8594" y2="178.8594"/><text fill="#000000" font-family="sans-serif" font-size="13" lengthAdjust="spacing" textLength="89" x="65" y="173.7935">Method(Input)</text><path d="M135,191.8594 L135,216.8594 L307,216.8594 L307,201.8594 L297,191.8594 L135,191.8594 " fill="#FBFB77" filter="url(#fll1ydq1cyjck)" style="stroke:#A80036;stroke-width:1.0;"/><path d="M297,191.8594 L297,201.8594 L307,201.8594 L297,191.8594 " fill="#FBFB77" style="stroke:#A80036;stroke-width:1.0;"/><text fill="#000000" font-family="sans-serif" font-size="13" lengthAdjust="spacing" textLength="151" x="141" y="208.9263">this is part of execution</text><polygon fill="#A80036" points="69,243.125,59,247.125,69,251.125,65,247.125" style="stroke:#A80036;stroke-width:1.0;"/><line style="stroke:#A80036;stroke-width:1.0;stroke-dasharray:2.0,2.0;" x1="63" x2="222" y1="247.125" y2="247.125"/><text fill="#000000" font-family="sans-serif" font-size="13" lengthAdjust="spacing" textLength="44" x="75" y="242.0591">Output</text><polygon fill="#A80036" points="206,332.7891,216,336.7891,206,340.7891,210,336.7891" style="stroke:#A80036;stroke-width:1.0;"/><line style="stroke:#A80036;stroke-width:1.0;" x1="58" x2="212" y1="336.7891" y2="336.7891"/><text fill="#000000" font-family="sans-serif" font-size="13" lengthAdjust="spacing" textLength="141" x="65" y="271.1919">MethodWithMoreArgs(</text><text fill="#000000" font-family="sans-serif" font-size="13" lengthAdjust="spacing" textLength="15" x="73" y="286.3247">Id,</text><text fill="#000000" font-family="sans-serif" font-size="13" lengthAdjust="spacing" textLength="71" x="73" y="301.4575">int * string,</text><text fill="#000000" font-family="sans-serif" font-size="13" lengthAdjust="spacing" textLength="32" x="73" y="316.5903">Input</text><text fill="#000000" font-family="sans-serif" font-size="13" lengthAdjust="spacing" textLength="5" x="65" y="331.7231">)</text><path d="M135,349.7891 L135,374.7891 L307,374.7891 L307,359.7891 L297,349.7891 L135,349.7891 " fill="#FBFB77" filter="url(#fll1ydq1cyjck)" style="stroke:#A80036;stroke-width:1.0;"/><path d="M297,349.7891 L297,359.7891 L307,359.7891 L297,349.7891 " fill="#FBFB77" style="stroke:#A80036;stroke-width:1.0;"/><text fill="#000000" font-family="sans-serif" font-size="13" lengthAdjust="spacing" textLength="151" x="141" y="366.856">this is part of execution</text><polygon fill="#A80036" points="64,401.0547,54,405.0547,64,409.0547,60,405.0547" style="stroke:#A80036;stroke-width:1.0;"/><line style="stroke:#A80036;stroke-width:1.0;stroke-dasharray:2.0,2.0;" x1="58" x2="222" y1="405.0547" y2="405.0547"/><text fill="#000000" font-family="sans-serif" font-size="13" lengthAdjust="spacing" textLength="44" x="70" y="399.9888">Output</text><!--MD5=[e03ebdb1c555efe8dbf4dd05fc953e89]
@startuml


== Service Method Call ==

actor "Main Service" as MainService <<My>>
participant "Service" as Service <<My>>

activate MainService
MainService -> Service ++: Method(Input)
    note over Service: this is part of execution
Service - -> MainService - -: Output
MainService -> Service ++: MethodWithMoreArgs(\n  Id, \n  int * string, \n  Input\n)
    note over Service: this is part of execution
Service - -> MainService - -: Output

deactivate MainService
@enduml

PlantUML version 1.2021.7(Sun May 23 12:40:07 UTC 2021)
(GPL source distribution)
Java Runtime: Java(TM) SE Runtime Environment
JVM: Java HotSpot(TM) 64-Bit Server VM
Default Encoding: UTF-8
Language: en
Country: US
--></g></svg>